<?xml version="1.0" encoding="utf-8"?>
<!-- Generator: Adobe Illustrator 14.0.0, SVG Export Plug-In . SVG Version: 6.00 Build 43363)  -->
<!DOCTYPE svg PUBLIC "-//W3C//DTD SVG 1.1//EN" "http://www.w3.org/Graphics/SVG/1.1/DTD/svg11.dtd">
<svg version="1.1"
	 id="svg2" xmlns:rdf="http://www.w3.org/1999/02/22-rdf-syntax-ns#" inkscape:version="0.47 r22583" xmlns:dc="http://purl.org/dc/elements/1.1/" sodipodi:version="0.32" xmlns:svg="http://www.w3.org/2000/svg" xmlns:sodipodi="http://sodipodi.sourceforge.net/DTD/sodipodi-0.dtd" xmlns:inkscape="http://www.inkscape.org/namespaces/inkscape" xmlns:cc="http://creativecommons.org/ns#" sodipodi:docname="y_combinator.svg" inkscape:output_extension="org.inkscape.output.svg.inkscape"
	 xmlns="http://www.w3.org/2000/svg" xmlns:xlink="http://www.w3.org/1999/xlink" x="0px" y="0px" width="256px" height="256px"
	 viewBox="0 0 256 256" enable-background="new 0 0 256 256" xml:space="preserve">
<sodipodi:namedview  id="base" showgrid="false" inkscape:window-y="136" inkscape:window-x="2" inkscape:window-height="674" inkscape:document-units="px" inkscape:cy="122.62969" inkscape:cx="44.770114" inkscape:zoom="0.24748737" bordercolor="#666666" pagecolor="#ffffff" inkscape:pageshadow="2" inkscape:pageopacity="0.0" inkscape:window-width="782" borderopacity="1.0" inkscape:current-layer="layer1" inkscape:window-maximized="0">
	</sodipodi:namedview>
<path id="rect1942" inkscape:export-ydpi="7.7063322" inkscape:export-xdpi="7.7063322" inkscape:export-filename="C:\Documents and Settings\Molumen\Desktop\path3511111.png" fill="#38A02C" d="
	M210.016,10.505H45.983c-19.6,0-35.487,15.888-35.487,35.487v164.015c0,19.599,15.889,35.486,35.487,35.486h164.033
	c19.6,0,35.486-15.888,35.486-35.486V45.993C245.504,26.394,229.616,10.505,210.016,10.505z"/>
<linearGradient id="path1950_1_" gradientUnits="userSpaceOnUse" x1="-1549.592" y1="830.2959" x2="-1601.2885" y2="980.9845" gradientTransform="matrix(-0.5915 0 0 0.5915 -846.3459 -515.123)">
	<stop  offset="0" style="stop-color:#FFFFFF"/>
	<stop  offset="1" style="stop-color:#FFFFFF;stop-opacity:0"/>
</linearGradient>
<path id="path1950" inkscape:export-ydpi="7.7063322" inkscape:export-xdpi="7.7063322" sodipodi:nodetypes="ccccsssc" inkscape:export-filename="C:\Documents and Settings\Molumen\Desktop\path3511111.png" fill="url(#path1950_1_)" d="
	M183.415,20.551H72.586c-29.337,0-52.955,23.81-52.955,53.385v108.126c0.949,23.086,4.604,8.492,11.556-17.074
	c8.081-29.713,34.396-55.682,66.444-75.146c24.461-14.855,51.842-24.341,101.68-25.244
	C227.575,64.088,225.079,27.917,183.415,20.551z"/>
<g>
	<path fill="#FFFFFF" d="M208.476,60.673c0,8.086-3.423,15.964-10.265,23.637l-1.065,1.14l-59.849,67.487
		c-12.718,14.307-23.548,25.365-32.49,33.174c-8.942,7.811-15.251,11.715-18.933,11.715c-3.874,0-8.683-1.954-14.429-5.858
		c-5.747-3.903-9.458-7.931-11.137-12.076c-1.421-3.454-2.761-10.781-4.018-21.978c-1.259-11.196-1.889-23.325-1.889-36.387
		c0-7.117,2.775-13.699,8.328-19.748c5.552-6.046,11.685-9.07,18.401-9.07c6.39,0,10.199,6.256,11.426,18.763
		c0.129,1.452,0.226,2.524,0.291,3.214c1.032,9.606,2.227,16.311,3.584,20.109c1.355,3.803,3.195,5.702,5.519,5.702
		c0.968,0,2.775-1.123,5.423-3.368c2.646-2.246,5.81-5.305,9.49-9.177l61.493-65.206c5.166-5.528,9.78-9.71,13.849-12.544
		c4.067-2.833,7.521-4.25,10.363-4.25c2.129,0,3.646,0.865,4.549,2.591c0.904,1.729,1.357,4.631,1.357,8.709V60.673L208.476,60.673z
		"/>
</g>
</svg>
